<svg width="57" height="57" viewBox="0 0 57 57" fill="none" xmlns="http://www.w3.org/2000/svg">
<path d="M26.125 30.875H38M19 30.875H19.0213M30.875 40.375H19M38 40.375H37.9787" stroke="black" stroke-width="3.5" stroke-linecap="round" stroke-linejoin="round"/>
<path d="M42.75 4.75V9.5M14.25 4.75V9.5" stroke="black" stroke-width="3.5" stroke-linecap="round" stroke-linejoin="round"/>
<path d="M5.9375 29.0777C5.9375 18.7291 5.9375 13.5548 8.91128 10.3399C11.8851 7.125 16.6713 7.125 26.2437 7.125H30.7562C40.3287 7.125 45.1149 7.125 48.0887 10.3399C51.0625 13.5548 51.0625 18.7291 51.0625 29.0777V30.2973C51.0625 40.6459 51.0625 45.8202 48.0887 49.0351C45.1149 52.25 40.3287 52.25 30.7562 52.25H26.2437C16.6713 52.25 11.8851 52.25 8.91128 49.0351C5.9375 45.8202 5.9375 40.6459 5.9375 30.2973V29.0777Z" stroke="black" stroke-width="3.5" stroke-linecap="round" stroke-linejoin="round"/>
<path d="M7.125 19H49.875" stroke="black" stroke-width="3.5" stroke-linecap="round" stroke-linejoin="round"/>
</svg>
