<svg width="103" height="77" viewBox="0 0 103 77" fill="none" xmlns="http://www.w3.org/2000/svg">
<path d="M75.9351 38.4562C76.2787 37.7912 75.2965 37.42 72.5315 37.1761C71.2254 37.0547 69.0037 36.8142 67.5962 36.6291C64.1198 36.1668 63.1345 36.2991 64.0632 37.0728C65.1269 37.948 75.5572 39.1714 75.9351 38.4562Z" fill="black"/>
<path d="M61.0926 37.1294C62.6191 37.29 63.0012 35.8952 56.0979 35.1974C51.5691 34.741 50.0582 34.7693 50.0547 35.3358C50.048 36.4057 57.0898 36.7015 61.0926 37.1294Z" fill="black"/>
<path d="M92.2218 36.909C92.4088 36.8598 91.5557 37.572 90.3279 38.4958C87.6847 40.4933 87.0358 41.1187 87.3734 41.4229C87.7784 41.7905 88.948 42.037 89.4751 41.8766C89.6622 41.8149 90.5485 41.2162 91.4522 40.5421C93.3622 39.0939 96.5496 36.9235 97.9976 36.0766C100.008 34.9059 100.366 34.6186 100.181 34.4035C99.7427 33.8721 99.3187 33.8316 93.1747 33.8309C88.5073 33.8269 86.8953 33.779 85.284 33.6053C81.5185 33.2041 81.1794 33.1768 80.7207 33.2369C77.799 33.634 84.5121 34.8969 89.9937 34.9816C91.0967 35.0011 91.928 35.0567 91.8598 35.1067C91.6042 35.2813 85.9619 36.4796 82.6995 37.0634C79.0803 37.7205 78.7232 37.8064 78.721 38.1588C78.7121 39.5686 84.537 39.026 92.2218 36.909Z" fill="black"/>
<path d="M2.26599 42.6147C2.7393 42.9198 3.02767 42.9468 3.91137 42.7635C5.30494 42.4701 10.1393 40.1716 10.1416 39.8065C10.1494 38.5604 5.27183 39.625 2.96963 41.3729C1.89537 42.1718 1.82654 42.3224 2.26599 42.6147Z" fill="black"/>
<path d="M17.1932 38.5542C23.0754 36.9924 22.7521 37.1288 22.1276 36.571C21.2162 35.7597 15.7975 36.5188 13.7871 37.7398C12.2539 38.6492 14.6432 39.2306 17.1932 38.5542Z" fill="black"/>
<path d="M44.9094 35.8074C47.4048 35.7349 47.5238 35.6978 47.1534 35.2171C46.4298 34.2307 38.9813 33.8569 37.7707 34.7431C36.526 35.6542 38.7643 35.9955 44.9094 35.8074Z" fill="black"/>
<path d="M28.4083 36.3836C28.4933 36.359 29.9884 36.1418 31.7041 35.9133C35.3391 35.4326 35.6455 35.296 34.2571 34.7587C32.6994 34.1573 24.9372 35.0779 24.9322 35.8709C24.9294 36.3241 27.388 36.6919 28.4083 36.3836Z" fill="black"/>
</svg>
