<svg width="62" height="62" viewBox="0 0 62 62" fill="none" xmlns="http://www.w3.org/2000/svg">
<path fill-rule="evenodd" clip-rule="evenodd" d="M2.4894 8.30793C0.788831 8.7685 0.841974 17.1474 2.54255 17.0056C3.81797 16.9171 3.99512 16.4388 3.94197 13.4451C3.87112 8.59136 3.71169 7.98908 2.4894 8.30793ZM2.25912 20.8319C1.60369 21.3102 1.97569 27.0142 2.80826 29.0336C3.3574 30.3799 4.13683 30.6456 4.75683 29.6891C5.23512 28.9451 4.95169 23.9851 4.26083 21.2748C4.06597 20.5308 2.9854 20.3005 2.25912 20.8319ZM4.1014 34.3302C3.19797 35.4285 4.73912 41.6816 5.92597 41.6816C6.79397 41.6816 6.93569 41.4159 6.93569 39.9456C6.93569 35.8714 5.37683 32.7891 4.1014 34.3302ZM45.7654 37.7136C43.9763 38.4931 50.7963 40.7959 54.906 40.7959C56.1991 40.7959 55.6854 41.0616 53.4534 41.5576C50.7431 42.1422 46.4385 43.6302 46.1728 44.0554C45.5351 45.1005 47.2357 45.0474 50.6014 43.9314C54.2683 42.7091 54.1974 42.6382 51.6997 45.0474C48.4403 48.1651 47.9088 49.3165 49.6803 49.2988C50.6191 49.2988 51.5757 48.5902 54.8705 45.5256C56.2168 44.2679 57.8643 42.8331 58.5551 42.3016C61.7083 39.8925 61.7083 39.8571 57.1025 39.5559C53.3294 39.3079 51.1505 38.9536 49.2551 38.2805C47.8203 37.7668 46.2437 37.5011 45.7654 37.7136ZM42.4174 44.6754C41.7797 44.8879 38.8037 46.2696 36.6425 47.0845C34.0031 48.0765 33.4185 48.8028 35.1545 48.9091C36.5717 48.9976 44.3305 46.0039 44.6317 45.2245C44.862 44.6222 43.5688 44.3034 42.4174 44.6754ZM7.39626 45.4548C5.64255 46.7479 10.1774 53.1959 12.8523 53.1959C12.9763 53.1959 13.7025 53.3554 14.4465 53.5502C17.582 54.3651 18.5208 53.1782 15.474 52.2394C12.746 51.3891 11.7008 50.3794 9.85855 46.7302C9.07912 45.1891 8.29969 44.7816 7.39626 45.4548ZM29.8757 49.2811C29.0608 49.4759 26.9705 50.5034 25.5357 50.9639C21.9043 52.1331 20.7351 53.1782 23.038 53.1782C24.4905 53.1782 31.47 50.5565 31.6648 49.9188C31.8774 49.2634 31.0803 48.9799 29.8757 49.2811Z" fill="black"/>
</svg>
